<svg width="87" height="106" viewBox="0 0 87 106" fill="none" xmlns="http://www.w3.org/2000/svg">
<defs>
<linearGradient id="purpleToBlueGradient" x1="-20%" y1="0%" x2="120%" y2="0%">
<stop offset="0%" style="stop-color:#9333ea;stop-opacity:1" />
<stop offset="100%" style="stop-color:#2563eb;stop-opacity:1" />
</linearGradient>
</defs>
<path fill-rule="evenodd" clip-rule="evenodd" d="M19.0177 30.9057C26.5525 30.9057 32.6142 36.9674 32.6142 44.5022C32.6142 52.0369 26.5525 58.0986 19.0177 58.0986C11.483 58.0986 5.42126 52.0369 5.42126 44.5022C5.42126 36.9674 11.483 30.9057 19.0177 30.9057ZM22.1341 34.9274C21.9076 34.8143 21.6809 34.9281 21.6243 35.1546C21.5676 35.2113 21.5679 35.2684 21.5679 35.3817V36.1751C21.5683 36.4014 21.7373 36.6281 21.907 36.7414C26.3255 38.3277 28.5912 43.2556 26.9484 47.6177C26.0987 49.997 24.2295 51.8102 21.907 52.66C21.6805 52.7733 21.5679 52.9438 21.5679 53.2271V54.0205C21.5681 54.2466 21.6809 54.4158 21.907 54.4724C21.9638 54.4724 22.0775 54.4724 22.1341 54.416C27.5156 52.7162 30.461 46.9946 28.7616 41.6129C27.7418 38.384 25.2496 35.9472 22.1341 34.9274ZM16.1285 34.8711C16.0717 34.8711 15.958 34.8711 15.9013 34.9274C10.5199 36.6271 7.57481 42.349 9.27387 47.7305C10.2935 50.9028 12.7291 53.3398 15.9013 54.3596C16.1278 54.4728 16.3545 54.3596 16.4112 54.1333C16.4679 54.0767 16.4692 54.0194 16.4692 53.9061V53.1127C16.4689 52.9429 16.2982 52.717 16.1285 52.6037C11.7097 51.0174 9.44403 46.0879 11.087 41.7257C11.9369 39.3466 13.8061 37.5331 16.1285 36.6834C16.3549 36.5701 16.4692 36.4003 16.4692 36.1171V35.3254C16.4692 35.0988 16.355 34.9277 16.1285 34.8711ZM18.5642 37.8167C18.3378 37.8169 18.1675 37.9871 18.1107 38.2702V39.5743C16.4118 39.8011 15.3362 40.9332 15.3359 42.3491C15.336 44.2185 16.4685 44.9558 18.8478 45.2392C20.4338 45.5224 20.9435 45.8618 20.9436 46.768C20.9436 47.6743 20.151 48.2974 19.0749 48.2976C17.6019 48.2976 17.0918 47.6741 16.9219 46.8243C16.8653 46.5983 16.6953 46.4855 16.5256 46.4852H15.5614C15.3354 46.4855 15.1655 46.6547 15.1651 46.8807V46.9387C15.3918 48.3547 16.2994 49.3739 18.1688 49.6572V51.0169C18.1688 51.2434 18.3382 51.4145 18.6214 51.4712H19.4712C19.6977 51.471 19.868 51.2999 19.9247 51.0169V49.6572C21.6238 49.3737 22.7565 48.1844 22.7568 46.6552C22.7567 44.6726 21.5669 43.992 19.1877 43.7088C17.4885 43.4821 17.1483 43.0294 17.1482 42.2364C17.1482 41.4432 17.7149 40.9323 18.8478 40.9323C19.8674 40.9323 20.4349 41.2738 20.7181 42.1236C20.7751 42.2929 20.9441 42.4061 21.1136 42.4063H22.0205C22.247 42.4061 22.4177 42.2356 22.4177 42.0092V41.9528C22.191 40.7067 21.1709 39.7442 19.8683 39.6306V38.2702C19.8682 38.0437 19.6971 37.8734 19.414 37.8167H18.5642Z" fill="url(#purpleToBlueGradient)"/>
<path d="M47.706 33.2837C47.9488 33.3009 48.6452 33.3425 49.607 33.3425C50.7608 33.3425 51.3393 33.2942 51.4473 33.2846V30.7585C55.1564 30.9239 57.9241 31.5709 57.9242 32.3433C57.9242 33.1177 55.1565 33.7627 51.4473 33.9271V33.9253C51.3421 33.9329 50.7998 33.9657 49.5904 33.9657C48.6249 33.9657 47.945 33.9368 47.706 33.9253V33.9281C43.9892 33.7646 41.2153 33.1176 41.2153 32.3433C41.2154 31.5699 43.9893 30.9231 47.706 30.7567V33.2837Z" fill="url(#purpleToBlueGradient)"/>
<path fill-rule="evenodd" clip-rule="evenodd" d="M49.6097 17.3093C58.0575 17.3093 64.9058 24.1575 64.9058 32.6053C64.9058 41.053 58.0575 47.9013 49.6097 47.9013C41.162 47.9013 34.3137 41.053 34.3137 32.6053C34.3137 24.1575 41.162 17.3093 49.6097 17.3093ZM42.5307 28.2334H47.706V30.4947C43.5002 30.6878 40.3373 31.521 40.3365 32.5189C40.3365 33.5169 43.4997 34.3498 47.706 34.5439V41.7921H51.4473V34.5421C55.6469 34.349 58.803 33.516 58.803 32.5189C58.8022 31.5219 55.6464 30.6897 51.4473 30.4956V28.2334H56.6226V24.7845H42.5307V28.2334Z" fill="url(#purpleToBlueGradient)"/>
<path fill-rule="evenodd" clip-rule="evenodd" d="M70.2462 51.3005C74.6898 51.3005 78.9509 53.0801 82.0928 56.247C85.2345 59.4138 86.9999 63.7087 86.9999 68.187C86.9999 72.6653 85.2346 76.9609 82.0928 80.1278C78.9509 83.2944 74.6896 85.0734 70.2462 85.0735H66.5502V88.7998C66.5502 93.2781 64.7849 97.5737 61.6431 100.741C58.5013 103.907 54.2399 105.686 49.7965 105.686H17.0762C12.6329 105.686 8.3715 103.907 5.22966 100.741C2.18608 97.6728 0.434511 93.5457 0.327896 89.2194L0.32251 88.7998V51.6969L0.330205 51.6171C0.366867 51.4364 0.526034 51.3005 0.716498 51.3005H70.2462ZM70.0584 56.1363C68.8369 56.1363 67.6587 56.3228 66.5502 56.6689V79.3868C67.6587 79.733 68.8368 79.9203 70.0584 79.9203C76.5862 79.9203 81.8781 74.596 81.8781 68.0283C81.8781 61.4605 76.5862 56.1363 70.0584 56.1363Z" fill="url(#purpleToBlueGradient)"/>
<path d="M28.3626 30.9058L19.0177 17.6744L28.3626 23.2214L37.7128 17.6744L28.3626 30.9058Z" fill="url(#purpleToBlueGradient)"/>
<path d="M37.7075 15.8935L28.3626 21.4438L19.0177 15.8935L28.3626 0.313721L37.7075 15.8935Z" fill="url(#purpleToBlueGradient)"/>
</svg>
